<svg width="50" height="49" viewBox="0 0 50 49" fill="none" xmlns="http://www.w3.org/2000/svg">
<path d="M20.4463 0.828258C26.803 -0.231189 32.1095 1.26969 33.9682 2.15257C27.3885 3.60236 21.9333 10.9813 20.0281 14.4895C18.0207 15.1029 16.1249 16.8826 15.4279 17.6957L13.3369 20.2747L10.5488 22.993C9.09908 24.3312 9.66597 25.3628 10.1306 25.7113V27.7326L11.9429 29.1963H12.9884C21.4082 29.029 22.5838 32.3328 22.1191 34.0056C20.1675 39.8047 12.6631 43.0202 9.15484 43.9031C4.86129 40.5017 2.48683 35.0512 1.8363 32.751C-1.50932 23.8851 2.20804 14.9774 4.48492 11.6318C9.11303 4.43871 17.0542 1.43232 20.4463 0.828258Z" fill="#FF7D01"/>
<path d="M29.4377 7.93768C34.7907 2.02708 42.1696 2.91924 45.19 4.10415C41.2867 3.88111 39.521 4.52235 39.126 4.87086C50.5011 12.6215 50.6963 25.0608 49.372 30.3115C45.9706 43.2479 36.9421 47.7831 32.853 48.4336C36.0871 39.4562 32.8995 30.5206 30.9014 27.175C29.7304 22.7699 27.8578 19.113 27.0679 17.8351C28.6291 17.5006 30.6458 16.1159 31.459 15.4653L31.6681 15.1865L24.9071 14.9774C24.4192 15.9765 23.7222 17.3612 24.8374 14.9077C25.9526 12.4543 28.3689 9.23875 29.4377 7.93768Z" fill="#FF7D01"/>
<path d="M20.4463 0.828258C26.803 -0.231189 32.1095 1.26969 33.9682 2.15257C27.3885 3.60236 21.9333 10.9813 20.0281 14.4895C18.0207 15.1029 16.1249 16.8826 15.4279 17.6957L13.3369 20.2747L10.5488 22.993C9.09908 24.3312 9.66597 25.3628 10.1306 25.7113V27.7326L11.9429 29.1963H12.9884C21.4082 29.029 22.5838 32.3328 22.1191 34.0056C20.1675 39.8047 12.6631 43.0202 9.15484 43.9031C4.86129 40.5017 2.48683 35.0512 1.8363 32.751C-1.50932 23.8851 2.20804 14.9774 4.48492 11.6318C9.11303 4.43871 17.0542 1.43232 20.4463 0.828258Z" fill="white"/>
</svg>
